<mxfile host="app.diagrams.net" agent="Mozilla/5.0 (Windows NT 10.0; Win64; x64) AppleWebKit/537.36 (KHTML, like Gecko) Chrome/133.0.0.0 Safari/537.36 Edg/133.0.0.0" version="26.0.14">
  <diagram name="PÃ¡gina-1" id="k6i2A87nSVLKeGexyVKv">
    <mxGraphModel dx="786" dy="463" grid="1" gridSize="10" guides="1" tooltips="1" connect="1" arrows="1" fold="1" page="1" pageScale="1" pageWidth="827" pageHeight="1169" math="0" shadow="0">
      <root>
        <mxCell id="0" />
        <mxCell id="1" parent="0" />
        <mxCell id="IcKNqAtZiI6maYE8690h-3" value="" style="rounded=0;whiteSpace=wrap;html=1;" vertex="1" parent="1">
          <mxGeometry x="130" y="130" width="120" height="50" as="geometry" />
        </mxCell>
        <mxCell id="IcKNqAtZiI6maYE8690h-5" value="" style="rounded=0;whiteSpace=wrap;html=1;" vertex="1" parent="1">
          <mxGeometry x="360" y="120" width="120" height="60" as="geometry" />
        </mxCell>
        <mxCell id="IcKNqAtZiI6maYE8690h-6" value="" style="rhombus;whiteSpace=wrap;html=1;" vertex="1" parent="1">
          <mxGeometry x="510" y="125" width="60" height="50" as="geometry" />
        </mxCell>
        <mxCell id="IcKNqAtZiI6maYE8690h-7" value="" style="rounded=0;whiteSpace=wrap;html=1;" vertex="1" parent="1">
          <mxGeometry x="590" y="120" width="120" height="60" as="geometry" />
        </mxCell>
        <mxCell id="IcKNqAtZiI6maYE8690h-8" value="Cliente" style="text;html=1;align=center;verticalAlign=middle;whiteSpace=wrap;rounded=0;" vertex="1" parent="1">
          <mxGeometry x="160" y="140" width="60" height="30" as="geometry" />
        </mxCell>
        <mxCell id="IcKNqAtZiI6maYE8690h-9" value="Pedido" style="text;html=1;align=center;verticalAlign=middle;whiteSpace=wrap;rounded=0;" vertex="1" parent="1">
          <mxGeometry x="390" y="135" width="60" height="30" as="geometry" />
        </mxCell>
        <mxCell id="IcKNqAtZiI6maYE8690h-10" value="Produto" style="text;html=1;align=center;verticalAlign=middle;whiteSpace=wrap;rounded=0;" vertex="1" parent="1">
          <mxGeometry x="620" y="135" width="60" height="30" as="geometry" />
        </mxCell>
        <mxCell id="IcKNqAtZiI6maYE8690h-66" value="" style="edgeStyle=orthogonalEdgeStyle;rounded=0;orthogonalLoop=1;jettySize=auto;html=1;" edge="1" parent="1" source="IcKNqAtZiI6maYE8690h-32" target="IcKNqAtZiI6maYE8690h-8">
          <mxGeometry relative="1" as="geometry" />
        </mxCell>
        <mxCell id="IcKNqAtZiI6maYE8690h-32" value="Nome" style="ellipse;whiteSpace=wrap;html=1;align=center;" vertex="1" parent="1">
          <mxGeometry x="20" y="135" width="100" height="40" as="geometry" />
        </mxCell>
        <mxCell id="IcKNqAtZiI6maYE8690h-64" value="" style="edgeStyle=orthogonalEdgeStyle;rounded=0;orthogonalLoop=1;jettySize=auto;html=1;" edge="1" parent="1" source="IcKNqAtZiI6maYE8690h-33" target="IcKNqAtZiI6maYE8690h-8">
          <mxGeometry relative="1" as="geometry" />
        </mxCell>
        <mxCell id="IcKNqAtZiI6maYE8690h-33" value="E-mail" style="ellipse;whiteSpace=wrap;html=1;align=center;" vertex="1" parent="1">
          <mxGeometry x="170" y="220" width="100" height="40" as="geometry" />
        </mxCell>
        <mxCell id="IcKNqAtZiI6maYE8690h-36" value="ID cliente" style="text;html=1;align=center;verticalAlign=middle;whiteSpace=wrap;rounded=0;" vertex="1" parent="1">
          <mxGeometry x="80" y="45" width="60" height="30" as="geometry" />
        </mxCell>
        <mxCell id="IcKNqAtZiI6maYE8690h-69" value="" style="edgeStyle=orthogonalEdgeStyle;rounded=0;orthogonalLoop=1;jettySize=auto;html=1;entryX=0.317;entryY=0.956;entryDx=0;entryDy=0;entryPerimeter=0;" edge="1" parent="1" source="IcKNqAtZiI6maYE8690h-37" target="IcKNqAtZiI6maYE8690h-5">
          <mxGeometry relative="1" as="geometry" />
        </mxCell>
        <mxCell id="IcKNqAtZiI6maYE8690h-37" value="ID cliente" style="ellipse;whiteSpace=wrap;html=1;align=center;" vertex="1" parent="1">
          <mxGeometry x="314" y="240" width="100" height="40" as="geometry" />
        </mxCell>
        <mxCell id="IcKNqAtZiI6maYE8690h-62" value="" style="edgeStyle=orthogonalEdgeStyle;rounded=0;orthogonalLoop=1;jettySize=auto;html=1;" edge="1" parent="1" source="IcKNqAtZiI6maYE8690h-38" target="IcKNqAtZiI6maYE8690h-9">
          <mxGeometry relative="1" as="geometry" />
        </mxCell>
        <mxCell id="IcKNqAtZiI6maYE8690h-38" value="ID Pedidos" style="ellipse;whiteSpace=wrap;html=1;align=center;" vertex="1" parent="1">
          <mxGeometry x="430" y="240" width="100" height="40" as="geometry" />
        </mxCell>
        <mxCell id="IcKNqAtZiI6maYE8690h-74" value="" style="edgeStyle=orthogonalEdgeStyle;rounded=0;orthogonalLoop=1;jettySize=auto;html=1;entryX=0.25;entryY=0;entryDx=0;entryDy=0;" edge="1" parent="1" source="IcKNqAtZiI6maYE8690h-40" target="IcKNqAtZiI6maYE8690h-5">
          <mxGeometry relative="1" as="geometry" />
        </mxCell>
        <mxCell id="IcKNqAtZiI6maYE8690h-40" value="ID pedidos" style="ellipse;whiteSpace=wrap;html=1;align=center;" vertex="1" parent="1">
          <mxGeometry x="300" y="40" width="100" height="40" as="geometry" />
        </mxCell>
        <mxCell id="IcKNqAtZiI6maYE8690h-75" value="" style="edgeStyle=orthogonalEdgeStyle;rounded=0;orthogonalLoop=1;jettySize=auto;html=1;" edge="1" parent="1" source="IcKNqAtZiI6maYE8690h-41" target="IcKNqAtZiI6maYE8690h-9">
          <mxGeometry relative="1" as="geometry" />
        </mxCell>
        <mxCell id="IcKNqAtZiI6maYE8690h-41" value="Data" style="ellipse;whiteSpace=wrap;html=1;align=center;" vertex="1" parent="1">
          <mxGeometry x="410" y="30" width="100" height="40" as="geometry" />
        </mxCell>
        <mxCell id="IcKNqAtZiI6maYE8690h-76" value="" style="edgeStyle=orthogonalEdgeStyle;rounded=0;orthogonalLoop=1;jettySize=auto;html=1;" edge="1" parent="1" source="IcKNqAtZiI6maYE8690h-42" target="IcKNqAtZiI6maYE8690h-10">
          <mxGeometry relative="1" as="geometry" />
        </mxCell>
        <mxCell id="IcKNqAtZiI6maYE8690h-42" value="Valor" style="ellipse;whiteSpace=wrap;html=1;align=center;" vertex="1" parent="1">
          <mxGeometry x="610" y="230" width="100" height="40" as="geometry" />
        </mxCell>
        <mxCell id="IcKNqAtZiI6maYE8690h-77" value="" style="edgeStyle=orthogonalEdgeStyle;rounded=0;orthogonalLoop=1;jettySize=auto;html=1;" edge="1" parent="1" source="IcKNqAtZiI6maYE8690h-43" target="IcKNqAtZiI6maYE8690h-10">
          <mxGeometry relative="1" as="geometry" />
        </mxCell>
        <mxCell id="IcKNqAtZiI6maYE8690h-43" value="Marca" style="ellipse;whiteSpace=wrap;html=1;align=center;" vertex="1" parent="1">
          <mxGeometry x="720" y="90" width="100" height="40" as="geometry" />
        </mxCell>
        <mxCell id="IcKNqAtZiI6maYE8690h-78" value="" style="edgeStyle=orthogonalEdgeStyle;rounded=0;orthogonalLoop=1;jettySize=auto;html=1;" edge="1" parent="1" source="IcKNqAtZiI6maYE8690h-44" target="IcKNqAtZiI6maYE8690h-10">
          <mxGeometry relative="1" as="geometry" />
        </mxCell>
        <mxCell id="IcKNqAtZiI6maYE8690h-44" value="ID Produtos" style="ellipse;whiteSpace=wrap;html=1;align=center;" vertex="1" parent="1">
          <mxGeometry x="610" y="40" width="100" height="40" as="geometry" />
        </mxCell>
        <mxCell id="IcKNqAtZiI6maYE8690h-72" value="" style="edgeStyle=orthogonalEdgeStyle;rounded=0;orthogonalLoop=1;jettySize=auto;html=1;entryX=0.417;entryY=0;entryDx=0;entryDy=0;entryPerimeter=0;" edge="1" parent="1" source="IcKNqAtZiI6maYE8690h-35" target="IcKNqAtZiI6maYE8690h-3">
          <mxGeometry relative="1" as="geometry">
            <mxPoint x="190" y="120" as="targetPoint" />
          </mxGeometry>
        </mxCell>
        <mxCell id="IcKNqAtZiI6maYE8690h-35" value="" style="shape=waypoint;sketch=0;fillStyle=solid;size=6;pointerEvents=1;points=[];fillColor=none;resizable=0;rotatable=0;perimeter=centerPerimeter;snapToPoint=1;" vertex="1" parent="1">
          <mxGeometry x="130" y="50" width="20" height="20" as="geometry" />
        </mxCell>
        <mxCell id="IcKNqAtZiI6maYE8690h-60" value="" style="edgeStyle=entityRelationEdgeStyle;fontSize=12;html=1;endArrow=ERoneToMany;rounded=0;entryX=1;entryY=0.5;entryDx=0;entryDy=0;exitX=0;exitY=0.5;exitDx=0;exitDy=0;" edge="1" parent="1" source="IcKNqAtZiI6maYE8690h-7" target="IcKNqAtZiI6maYE8690h-5">
          <mxGeometry width="100" height="100" relative="1" as="geometry">
            <mxPoint x="500" y="215" as="sourcePoint" />
            <mxPoint x="600" y="125" as="targetPoint" />
          </mxGeometry>
        </mxCell>
        <mxCell id="IcKNqAtZiI6maYE8690h-4" value="" style="rhombus;whiteSpace=wrap;html=1;" vertex="1" parent="1">
          <mxGeometry x="280" y="120" width="60" height="55" as="geometry" />
        </mxCell>
        <mxCell id="IcKNqAtZiI6maYE8690h-79" value="" style="edgeStyle=entityRelationEdgeStyle;fontSize=12;html=1;endArrow=ERoneToMany;rounded=0;entryX=0;entryY=0.5;entryDx=0;entryDy=0;exitX=1;exitY=0.5;exitDx=0;exitDy=0;" edge="1" parent="1" source="IcKNqAtZiI6maYE8690h-3" target="IcKNqAtZiI6maYE8690h-5">
          <mxGeometry width="100" height="100" relative="1" as="geometry">
            <mxPoint x="250" y="150" as="sourcePoint" />
            <mxPoint x="350" y="50" as="targetPoint" />
            <Array as="points">
              <mxPoint x="170" y="10" />
            </Array>
          </mxGeometry>
        </mxCell>
        <mxCell id="IcKNqAtZiI6maYE8690h-80" value="&lt;h1 style=&quot;margin-top: 0px;&quot;&gt;Diagrama ER-Projeto Loja&lt;/h1&gt;&lt;div&gt;Desenvolvido por Jamilly Dos Santos.&lt;/div&gt;" style="text;html=1;whiteSpace=wrap;overflow=hidden;rounded=0;" vertex="1" parent="1">
          <mxGeometry x="30" y="310" width="300" height="80" as="geometry" />
        </mxCell>
      </root>
    </mxGraphModel>
  </diagram>
</mxfile>
